<svg xmlns="http://www.w3.org/2000/svg" xmlns:xlink="http://www.w3.org/1999/xlink" width="500" zoomAndPan="magnify" viewBox="0 0 375 374.999991" height="500" preserveAspectRatio="xMidYMid meet" version="1.0"><defs><g/><clipPath id="e7232dba17"><path d="M 13.886719 13.886719 L 361.113281 13.886719 L 361.113281 361.113281 L 13.886719 361.113281 Z M 13.886719 13.886719 " clip-rule="nonzero"/></clipPath><clipPath id="ef82c873cc"><path d="M 187.5 13.886719 C 91.617188 13.886719 13.886719 91.617188 13.886719 187.5 C 13.886719 283.382812 91.617188 361.113281 187.5 361.113281 C 283.382812 361.113281 361.113281 283.382812 361.113281 187.5 C 361.113281 91.617188 283.382812 13.886719 187.5 13.886719 Z M 187.5 13.886719 " clip-rule="nonzero"/></clipPath><clipPath id="9259a6fa52"><path d="M 48 154 L 58 154 L 58 212 L 48 212 Z M 48 154 " clip-rule="nonzero"/></clipPath><clipPath id="4f400567ee"><path d="M 13.886719 132.898438 L 47.722656 120.605469 L 95.355469 251.722656 L 61.519531 264.011719 Z M 13.886719 132.898438 " clip-rule="nonzero"/></clipPath><clipPath id="f25a84ba1d"><path d="M 13.886719 132.898438 L 200.691406 65.035156 L 268.300781 251.136719 L 81.496094 318.996094 Z M 13.886719 132.898438 " clip-rule="nonzero"/></clipPath><clipPath id="13044745bd"><path d="M 55 227 L 73 227 L 73 256 L 55 256 Z M 55 227 " clip-rule="nonzero"/></clipPath><clipPath id="42407867a9"><path d="M 13.886719 132.898438 L 47.722656 120.605469 L 95.355469 251.722656 L 61.519531 264.011719 Z M 13.886719 132.898438 " clip-rule="nonzero"/></clipPath><clipPath id="c899108180"><path d="M 13.886719 132.898438 L 200.691406 65.035156 L 268.300781 251.136719 L 81.496094 318.996094 Z M 13.886719 132.898438 " clip-rule="nonzero"/></clipPath><clipPath id="d6d361bc65"><path d="M 45 211 L 59 211 L 59 224 L 45 224 Z M 45 211 " clip-rule="nonzero"/></clipPath><clipPath id="efa752d803"><path d="M 13.886719 132.898438 L 47.722656 120.605469 L 95.355469 251.722656 L 61.519531 264.011719 Z M 13.886719 132.898438 " clip-rule="nonzero"/></clipPath><clipPath id="6854d13ea9"><path d="M 13.886719 132.898438 L 200.691406 65.035156 L 268.300781 251.136719 L 81.496094 318.996094 Z M 13.886719 132.898438 " clip-rule="nonzero"/></clipPath><clipPath id="5ea10b2c60"><path d="M 331 153 L 342 153 L 342 211 L 331 211 Z M 331 153 " clip-rule="nonzero"/></clipPath><clipPath id="a337c0d10f"><path d="M 340.320312 120.3125 L 374.328125 132.117188 L 328.585938 263.902344 L 294.578125 252.097656 Z M 340.320312 120.3125 " clip-rule="nonzero"/></clipPath><clipPath id="770897f2c2"><path d="M 374.648438 132.226562 L 186.890625 67.054688 L 121.964844 254.109375 L 309.726562 319.28125 Z M 374.648438 132.226562 " clip-rule="nonzero"/></clipPath><clipPath id="0259be259b"><path d="M 317 227 L 335 227 L 335 257 L 317 257 Z M 317 227 " clip-rule="nonzero"/></clipPath><clipPath id="f7ecd6155d"><path d="M 340.320312 120.3125 L 374.328125 132.117188 L 328.585938 263.902344 L 294.578125 252.097656 Z M 340.320312 120.3125 " clip-rule="nonzero"/></clipPath><clipPath id="d9162ffc9f"><path d="M 374.648438 132.226562 L 186.890625 67.054688 L 121.964844 254.109375 L 309.726562 319.28125 Z M 374.648438 132.226562 " clip-rule="nonzero"/></clipPath><clipPath id="64c7d3e3ec"><path d="M 331 211 L 345 211 L 345 224 L 331 224 Z M 331 211 " clip-rule="nonzero"/></clipPath><clipPath id="0c45b0772e"><path d="M 340.320312 120.3125 L 374.328125 132.117188 L 328.585938 263.902344 L 294.578125 252.097656 Z M 340.320312 120.3125 " clip-rule="nonzero"/></clipPath><clipPath id="c6d0f0e0c9"><path d="M 374.648438 132.226562 L 186.890625 67.054688 L 121.964844 254.109375 L 309.726562 319.28125 Z M 374.648438 132.226562 " clip-rule="nonzero"/></clipPath></defs><g clip-path="url(#e7232dba17)"><g clip-path="url(#ef82c873cc)"><path fill="#ffdbdb" d="M 13.886719 13.886719 L 361.113281 13.886719 L 361.113281 361.113281 L 13.886719 361.113281 Z M 13.886719 13.886719 " fill-opacity="1" fill-rule="nonzero"/></g></g><g clip-path="url(#9259a6fa52)"><g clip-path="url(#4f400567ee)"><g clip-path="url(#f25a84ba1d)"><path fill="#863d3d" d="M 51.023438 211.058594 C 50.9375 210.746094 50.847656 210.433594 50.765625 210.117188 C 50.585938 209.453125 50.496094 208.746094 50.21875 208.125 C 48.824219 205 48.429688 201.679688 48.253906 198.332031 C 47.660156 187.097656 49.125 176.152344 52.429688 165.484375 C 53.542969 161.886719 54.945312 158.40625 56.757812 155.113281 C 56.957031 154.75 57.179688 154.394531 57.386719 154.035156 C 57.875 154.316406 57.664062 154.613281 57.589844 154.859375 C 57.257812 155.929688 56.902344 156.992188 56.554688 158.058594 C 54.886719 163.140625 53.355469 168.269531 52.355469 173.542969 C 50.695312 182.277344 50.273438 191.101562 50.910156 200 C 51.089844 202.539062 51.210938 205.074219 50.949219 207.617188 C 50.832031 208.746094 51.042969 209.917969 51.109375 211.066406 C 51.082031 211.066406 51.050781 211.0625 51.023438 211.058594 " fill-opacity="1" fill-rule="nonzero"/></g></g></g><g clip-path="url(#13044745bd)"><g clip-path="url(#42407867a9)"><g clip-path="url(#c899108180)"><path fill="#863d3d" d="M 72.550781 255.972656 C 71.101562 254.90625 70.085938 253.722656 69.058594 252.558594 C 66.089844 249.203125 63.5625 245.523438 61.425781 241.582031 C 60.003906 238.964844 58.664062 236.296875 57.441406 233.582031 C 56.730469 232 56.316406 230.28125 55.789062 228.621094 C 55.722656 228.414062 55.796875 228.164062 55.804688 227.945312 C 56.382812 227.875 56.5 228.265625 56.65625 228.578125 C 57.96875 231.128906 59.289062 233.679688 60.574219 236.246094 C 62.335938 239.761719 64.339844 243.132812 66.464844 246.4375 C 68.367188 249.398438 70.289062 252.347656 72.199219 255.304688 C 72.292969 255.449219 72.359375 255.613281 72.550781 255.972656 " fill-opacity="1" fill-rule="nonzero"/></g></g></g><g clip-path="url(#d6d361bc65)"><g clip-path="url(#efa752d803)"><g clip-path="url(#6854d13ea9)"><path fill="#863d3d" d="M 53.253906 217.71875 C 53.171875 217.730469 53.085938 217.746094 53.003906 217.757812 C 52.832031 217.324219 52.628906 216.972656 52.109375 216.914062 C 51.480469 216.84375 50.851562 216.691406 50.234375 216.523438 C 49.285156 216.261719 48.386719 216.355469 47.535156 216.796875 C 46.128906 217.527344 46.058594 218.878906 47.371094 219.78125 C 47.636719 219.964844 47.925781 220.144531 48.230469 220.230469 C 49.09375 220.46875 49.957031 220.695312 50.835938 220.855469 C 52.335938 221.128906 53.875 221.226562 55.355469 221.90625 C 55.800781 219.832031 56.257812 217.828125 56.644531 215.8125 C 56.738281 215.335938 56.683594 214.789062 56.5625 214.3125 C 56.304688 213.277344 55.601562 213.085938 54.816406 213.785156 C 54.285156 214.261719 54.082031 214.910156 53.90625 215.585938 C 53.714844 216.304688 53.472656 217.007812 53.253906 217.71875 Z M 55.828125 223.511719 C 55.351562 223.316406 54.96875 223.101562 54.558594 223 C 53.027344 222.621094 51.484375 222.316406 49.960938 221.917969 C 49.101562 221.691406 48.246094 221.398438 47.433594 221.03125 C 46.957031 220.816406 46.492188 220.457031 46.15625 220.050781 C 45.09375 218.777344 45.269531 217.164062 46.527344 216.09375 C 48.015625 214.832031 50.582031 214.738281 52.28125 215.941406 C 52.375 215.578125 52.464844 215.238281 52.554688 214.902344 C 52.839844 213.859375 53.355469 212.984375 54.25 212.363281 C 55.640625 211.402344 57.320312 211.949219 57.921875 213.5625 C 58.210938 214.332031 58.253906 215.128906 58.144531 215.921875 C 57.808594 218.414062 56.996094 220.765625 56.125 223.097656 C 56.050781 223.285156 55.886719 223.4375 55.828125 223.511719 " fill-opacity="1" fill-rule="nonzero"/></g></g></g><g clip-path="url(#5ea10b2c60)"><g clip-path="url(#a337c0d10f)"><g clip-path="url(#770897f2c2)"><path fill="#863d3d" d="M 338.640625 210.914062 C 338.722656 210.597656 338.804688 210.285156 338.886719 209.972656 C 339.054688 209.300781 339.136719 208.59375 339.402344 207.96875 C 340.75 204.824219 341.097656 201.496094 341.226562 198.148438 C 341.660156 186.90625 340.035156 175.984375 336.582031 165.363281 C 335.414062 161.785156 333.960938 158.324219 332.105469 155.058594 C 331.898438 154.695312 331.671875 154.34375 331.457031 153.988281 C 330.976562 154.273438 331.1875 154.570312 331.269531 154.816406 C 331.617188 155.882812 331.984375 156.9375 332.347656 157.996094 C 334.089844 163.058594 335.695312 168.160156 336.769531 173.421875 C 338.554688 182.132812 339.105469 190.949219 338.597656 199.855469 C 338.453125 202.394531 338.367188 204.933594 338.664062 207.472656 C 338.800781 208.601562 338.605469 209.773438 338.554688 210.925781 C 338.585938 210.921875 338.613281 210.917969 338.640625 210.914062 " fill-opacity="1" fill-rule="nonzero"/></g></g></g><g clip-path="url(#0259be259b)"><g clip-path="url(#f7ecd6155d)"><g clip-path="url(#d9162ffc9f)"><path fill="#863d3d" d="M 317.761719 256.132812 C 319.195312 255.042969 320.195312 253.847656 321.207031 252.671875 C 324.125 249.273438 326.597656 245.554688 328.679688 241.585938 C 330.0625 238.945312 331.363281 236.257812 332.546875 233.527344 C 333.234375 231.933594 333.625 230.210938 334.128906 228.542969 C 334.191406 228.335938 334.113281 228.089844 334.101562 227.867188 C 333.523438 227.804688 333.414062 228.199219 333.261719 228.511719 C 331.984375 231.082031 330.703125 233.652344 329.453125 236.234375 C 327.742188 239.777344 325.785156 243.175781 323.710938 246.507812 C 321.851562 249.5 319.96875 252.476562 318.101562 255.460938 C 318.011719 255.605469 317.945312 255.769531 317.761719 256.132812 " fill-opacity="1" fill-rule="nonzero"/></g></g></g><g clip-path="url(#64c7d3e3ec)"><g clip-path="url(#0c45b0772e)"><g clip-path="url(#c6d0f0e0c9)"><path fill="#863d3d" d="M 336.507812 217.605469 C 336.589844 217.617188 336.671875 217.628906 336.753906 217.640625 C 336.921875 217.203125 337.121094 216.851562 337.636719 216.785156 C 338.269531 216.707031 338.894531 216.542969 339.507812 216.367188 C 340.453125 216.09375 341.355469 216.171875 342.210938 216.601562 C 343.628906 217.3125 343.71875 218.664062 342.417969 219.582031 C 342.15625 219.769531 341.867188 219.957031 341.566406 220.046875 C 340.707031 220.296875 339.84375 220.535156 338.96875 220.707031 C 337.472656 221.003906 335.9375 221.121094 334.464844 221.824219 C 333.988281 219.753906 333.507812 217.757812 333.089844 215.75 C 332.988281 215.273438 333.035156 214.726562 333.148438 214.246094 C 333.390625 213.210938 334.09375 213.007812 334.886719 213.695312 C 335.425781 214.164062 335.636719 214.808594 335.824219 215.480469 C 336.023438 216.199219 336.277344 216.898438 336.507812 217.605469 Z M 334.015625 223.433594 C 334.488281 223.230469 334.871094 223.011719 335.277344 222.902344 C 336.800781 222.503906 338.34375 222.175781 339.859375 221.753906 C 340.714844 221.519531 341.566406 221.210938 342.375 220.832031 C 342.847656 220.609375 343.304688 220.246094 343.636719 219.835938 C 344.683594 218.546875 344.480469 216.933594 343.210938 215.886719 C 341.703125 214.644531 339.132812 214.585938 337.453125 215.8125 C 337.351562 215.453125 337.261719 215.117188 337.164062 214.777344 C 336.867188 213.742188 336.335938 212.871094 335.433594 212.265625 C 334.03125 211.324219 332.359375 211.894531 331.777344 213.515625 C 331.5 214.292969 331.46875 215.089844 331.589844 215.882812 C 331.960938 218.367188 332.808594 220.707031 333.714844 223.023438 C 333.789062 223.210938 333.957031 223.359375 334.015625 223.433594 " fill-opacity="1" fill-rule="nonzero"/></g></g></g><path fill="#ffffff" d="M 187.5 375 C 84.144531 375 0 290.855469 0 187.5 C 0 84.144531 84.144531 0 187.5 0 C 290.855469 0 375 84.144531 375 187.5 C 375 290.855469 290.855469 375 187.5 375 Z M 187.5 2.769531 C 85.621094 2.769531 2.769531 85.621094 2.769531 187.5 C 2.769531 289.378906 85.621094 372.230469 187.5 372.230469 C 289.378906 372.230469 372.230469 289.378906 372.230469 187.5 C 372.230469 85.621094 289.378906 2.769531 187.5 2.769531 Z M 187.5 2.769531 " fill-opacity="1" fill-rule="nonzero"/><g fill="#8b0000" fill-opacity="1"><g transform="translate(92.958967, 97.336799)"><g><path d="M -8 -9.859375 L -8.671875 -10.5 C -6.785156 -12.78125 -5.066406 -14.578125 -3.515625 -15.890625 C -1.972656 -17.210938 -0.554688 -18.101562 0.734375 -18.5625 C 2.023438 -19.019531 3.222656 -19.082031 4.328125 -18.75 C 5.441406 -18.414062 6.5 -17.734375 7.5 -16.703125 C 8.445312 -15.710938 9.113281 -14.679688 9.5 -13.609375 C 9.882812 -12.546875 9.890625 -11.414062 9.515625 -10.21875 C 9.148438 -9.019531 8.335938 -7.71875 7.078125 -6.3125 C 5.816406 -4.90625 4.03125 -3.363281 1.71875 -1.6875 C 0.164062 -3.40625 -1.304688 -5.015625 -2.703125 -6.515625 C -4.109375 -8.015625 -5.519531 -9.503906 -6.9375 -10.984375 Z M 2.09375 -3.84375 C 4.3125 -5.507812 5.894531 -7.015625 6.84375 -8.359375 C 7.800781 -9.703125 8.207031 -10.953125 8.0625 -12.109375 C 7.925781 -13.273438 7.328125 -14.410156 6.265625 -15.515625 C 5.128906 -16.679688 3.96875 -17.289062 2.78125 -17.34375 C 1.59375 -17.40625 0.328125 -16.972656 -1.015625 -16.046875 C -2.367188 -15.117188 -3.84375 -13.726562 -5.4375 -11.875 C -4.550781 -10.957031 -3.703125 -10.0625 -2.890625 -9.1875 C -2.078125 -8.3125 -1.265625 -7.441406 -0.453125 -6.578125 C 0.359375 -5.710938 1.207031 -4.800781 2.09375 -3.84375 Z M 2.09375 -3.84375 "/></g></g></g><g fill="#8b0000" fill-opacity="1"><g transform="translate(112.084952, 79.916854)"><g><path d="M 7.984375 -4.6875 C 6.609375 -3.820312 5.253906 -3.304688 3.921875 -3.140625 C 2.597656 -2.984375 1.375 -3.179688 0.25 -3.734375 C -0.863281 -4.285156 -1.8125 -5.1875 -2.59375 -6.4375 C -3.414062 -7.738281 -3.84375 -9.023438 -3.875 -10.296875 C -3.914062 -11.578125 -3.582031 -12.789062 -2.875 -13.9375 C -2.164062 -15.082031 -1.125 -16.085938 0.25 -16.953125 C 1.632812 -17.828125 2.992188 -18.335938 4.328125 -18.484375 C 5.660156 -18.628906 6.894531 -18.410156 8.03125 -17.828125 C 9.175781 -17.253906 10.160156 -16.316406 10.984375 -15.015625 C 11.765625 -13.765625 12.160156 -12.515625 12.171875 -11.265625 C 12.191406 -10.015625 11.84375 -8.820312 11.125 -7.6875 C 10.414062 -6.5625 9.367188 -5.5625 7.984375 -4.6875 Z M 7.171875 -5.984375 C 8.265625 -6.679688 9.085938 -7.472656 9.640625 -8.359375 C 10.191406 -9.242188 10.457031 -10.179688 10.4375 -11.171875 C 10.414062 -12.160156 10.109375 -13.132812 9.515625 -14.09375 C 8.867188 -15.101562 8.097656 -15.835938 7.203125 -16.296875 C 6.304688 -16.765625 5.332031 -16.945312 4.28125 -16.84375 C 3.226562 -16.75 2.15625 -16.351562 1.0625 -15.65625 C -0.0195312 -14.96875 -0.832031 -14.171875 -1.375 -13.265625 C -1.914062 -12.367188 -2.171875 -11.410156 -2.140625 -10.390625 C -2.109375 -9.378906 -1.769531 -8.367188 -1.125 -7.359375 C -0.53125 -6.398438 0.207031 -5.703125 1.09375 -5.265625 C 1.976562 -4.828125 2.941406 -4.664062 3.984375 -4.78125 C 5.023438 -4.894531 6.085938 -5.296875 7.171875 -5.984375 Z M 7.171875 -5.984375 "/></g></g></g><g fill="#8b0000" fill-opacity="1"><g transform="translate(134.656987, 66.649431)"><g><path d="M 12.03125 -9.765625 L 13.5625 -9.921875 C 13.71875 -8.265625 13.363281 -6.832031 12.5 -5.625 C 11.644531 -4.414062 10.316406 -3.46875 8.515625 -2.78125 C 7.003906 -2.21875 5.601562 -2.003906 4.3125 -2.140625 C 3.03125 -2.285156 1.910156 -2.753906 0.953125 -3.546875 C 0.00390625 -4.347656 -0.726562 -5.4375 -1.25 -6.8125 C -1.769531 -8.207031 -1.945312 -9.507812 -1.78125 -10.71875 C -1.613281 -11.925781 -1.097656 -13.007812 -0.234375 -13.96875 C 0.617188 -14.9375 1.832031 -15.71875 3.40625 -16.3125 C 4.5 -16.726562 5.601562 -16.925781 6.71875 -16.90625 C 7.832031 -16.882812 8.8125 -16.59375 9.65625 -16.03125 C 9.550781 -16.394531 9.4375 -16.753906 9.3125 -17.109375 C 9.1875 -17.460938 9.078125 -17.785156 8.984375 -18.078125 L 9.84375 -18.390625 C 10.132812 -17.648438 10.425781 -16.9375 10.71875 -16.25 C 11.007812 -15.5625 11.3125 -14.875 11.625 -14.1875 L 10.4375 -13.4375 C 9.9375 -13.976562 9.367188 -14.421875 8.734375 -14.765625 C 8.109375 -15.117188 7.398438 -15.316406 6.609375 -15.359375 C 5.828125 -15.398438 4.941406 -15.234375 3.953125 -14.859375 C 2.128906 -14.171875 0.921875 -13.171875 0.328125 -11.859375 C -0.265625 -10.554688 -0.257812 -9.101562 0.34375 -7.5 C 0.757812 -6.40625 1.34375 -5.539062 2.09375 -4.90625 C 2.84375 -4.269531 3.726562 -3.882812 4.75 -3.75 C 5.78125 -3.625 6.890625 -3.785156 8.078125 -4.234375 C 9.378906 -4.734375 10.375 -5.445312 11.0625 -6.375 C 11.757812 -7.3125 12.082031 -8.441406 12.03125 -9.765625 Z M 12.03125 -9.765625 "/></g></g></g><g fill="#8b0000" fill-opacity="1"><g transform="translate(158.402811, 58.537134)"><g><path d="M 14.125 -3.953125 L 13.890625 -6.015625 L 14.828125 -6.140625 L 15.375 -2.59375 C 14.476562 -2.4375 13.46875 -2.257812 12.34375 -2.0625 C 11.226562 -1.863281 10.078125 -1.664062 8.890625 -1.46875 C 7.703125 -1.28125 6.519531 -1.085938 5.34375 -0.890625 C 4.175781 -0.703125 3.078125 -0.535156 2.046875 -0.390625 C 1.828125 -2.378906 1.570312 -4.460938 1.28125 -6.640625 C 1 -8.828125 0.722656 -10.9375 0.453125 -12.96875 L -1.0625 -12.734375 L -1.15625 -13.625 C 0.15625 -13.851562 1.554688 -14.101562 3.046875 -14.375 C 4.546875 -14.644531 6.046875 -14.925781 7.546875 -15.21875 C 9.054688 -15.507812 10.453125 -15.796875 11.734375 -16.078125 L 12.59375 -12.625 L 11.71875 -12.40625 L 11.15625 -14.4375 C 10.226562 -14.25 9.222656 -14.050781 8.140625 -13.84375 C 7.066406 -13.632812 6.007812 -13.4375 4.96875 -13.25 C 3.9375 -13.0625 2.992188 -12.894531 2.140625 -12.75 C 2.234375 -12.039062 2.332031 -11.328125 2.4375 -10.609375 C 2.550781 -9.890625 2.65625 -9.15625 2.75 -8.40625 C 3.445312 -8.519531 4.242188 -8.640625 5.140625 -8.765625 C 6.046875 -8.898438 6.96875 -9.050781 7.90625 -9.21875 C 8.84375 -9.394531 9.71875 -9.554688 10.53125 -9.703125 L 10.78125 -8.421875 C 9.945312 -8.273438 9.054688 -8.113281 8.109375 -7.9375 C 7.171875 -7.769531 6.25 -7.613281 5.34375 -7.46875 C 4.4375 -7.332031 3.628906 -7.210938 2.921875 -7.109375 C 3.023438 -6.253906 3.132812 -5.414062 3.25 -4.59375 C 3.363281 -3.769531 3.457031 -2.96875 3.53125 -2.1875 C 4.625 -2.34375 5.773438 -2.519531 6.984375 -2.71875 C 8.203125 -2.914062 9.425781 -3.117188 10.65625 -3.328125 C 11.894531 -3.546875 13.050781 -3.753906 14.125 -3.953125 Z M 14.125 -3.953125 "/></g></g></g><g fill="#8b0000" fill-opacity="1"><g transform="translate(182.411873, 55.27476)"><g><path d="M 8.40625 -7.515625 C 10.007812 -7.328125 11.304688 -7.0625 12.296875 -6.71875 C 13.285156 -6.375 14.003906 -5.914062 14.453125 -5.34375 C 14.910156 -4.78125 15.128906 -4.0625 15.109375 -3.1875 C 15.078125 -1.84375 14.5 -0.859375 13.375 -0.234375 C 12.25 0.378906 10.695312 0.671875 8.71875 0.640625 C 7.75 0.617188 6.765625 0.515625 5.765625 0.328125 C 4.773438 0.140625 3.828125 -0.125 2.921875 -0.46875 C 2.015625 -0.820312 1.210938 -1.226562 0.515625 -1.6875 L 1.1875 -3.109375 C 1.925781 -2.617188 2.734375 -2.207031 3.609375 -1.875 C 4.492188 -1.550781 5.382812 -1.304688 6.28125 -1.140625 C 7.175781 -0.972656 7.984375 -0.882812 8.703125 -0.875 C 10.160156 -0.832031 11.296875 -0.992188 12.109375 -1.359375 C 12.929688 -1.734375 13.351562 -2.351562 13.375 -3.21875 C 13.394531 -4.0625 13 -4.6875 12.1875 -5.09375 C 11.375 -5.5 10.007812 -5.820312 8.09375 -6.0625 C 5.6875 -6.363281 3.941406 -6.835938 2.859375 -7.484375 C 1.773438 -8.128906 1.25 -9.070312 1.28125 -10.3125 C 1.300781 -11.15625 1.566406 -11.835938 2.078125 -12.359375 C 2.585938 -12.890625 3.28125 -13.273438 4.15625 -13.515625 C 5.039062 -13.765625 6.039062 -13.878906 7.15625 -13.859375 C 8.519531 -13.828125 9.796875 -13.625 10.984375 -13.25 C 12.171875 -12.882812 13.242188 -12.445312 14.203125 -11.9375 L 14.984375 -13.328125 L 15.828125 -12.953125 C 15.578125 -12.460938 15.335938 -11.960938 15.109375 -11.453125 C 14.890625 -10.953125 14.671875 -10.488281 14.453125 -10.0625 C 13.203125 -10.820312 11.925781 -11.394531 10.625 -11.78125 C 9.332031 -12.175781 8.160156 -12.390625 7.109375 -12.421875 C 6.347656 -12.429688 5.660156 -12.375 5.046875 -12.25 C 4.429688 -12.125 3.941406 -11.90625 3.578125 -11.59375 C 3.210938 -11.289062 3.023438 -10.863281 3.015625 -10.3125 C 2.992188 -9.582031 3.394531 -8.992188 4.21875 -8.546875 C 5.050781 -8.109375 6.445312 -7.765625 8.40625 -7.515625 Z M 8.40625 -7.515625 "/></g></g></g><g fill="#8b0000" fill-opacity="1"><g transform="translate(206.388974, 56.799044)"><g/></g></g><g fill="#8b0000" fill-opacity="1"><g transform="translate(221.619142, 59.839987)"><g><path d="M 14.328125 -2.65625 C 15.347656 -2.082031 16.003906 -1.425781 16.296875 -0.6875 C 16.597656 0.0507812 16.582031 0.882812 16.25 1.8125 C 15.769531 3.164062 14.890625 3.941406 13.609375 4.140625 C 12.328125 4.347656 10.675781 4.09375 8.65625 3.375 C 7.5 2.96875 6.351562 2.53125 5.21875 2.0625 C 4.082031 1.59375 3.035156 1.132812 2.078125 0.6875 C 2.859375 -1.207031 3.644531 -3.164062 4.4375 -5.1875 C 5.238281 -7.207031 5.992188 -9.1875 6.703125 -11.125 L 5.28125 -11.59375 L 5.546875 -12.484375 C 6.367188 -12.253906 7.164062 -12.023438 7.9375 -11.796875 C 8.707031 -11.578125 9.492188 -11.335938 10.296875 -11.078125 C 11.097656 -10.828125 11.96875 -10.535156 12.90625 -10.203125 C 14.363281 -9.679688 15.476562 -9.132812 16.25 -8.5625 C 17.03125 -7.988281 17.519531 -7.382812 17.71875 -6.75 C 17.914062 -6.113281 17.882812 -5.429688 17.625 -4.703125 C 17.363281 -3.960938 16.941406 -3.421875 16.359375 -3.078125 C 15.785156 -2.742188 15.109375 -2.601562 14.328125 -2.65625 Z M 15.96875 -5.125 C 16.226562 -5.875 16.082031 -6.5625 15.53125 -7.1875 C 14.976562 -7.8125 13.941406 -8.394531 12.421875 -8.9375 C 11.773438 -9.164062 11.078125 -9.390625 10.328125 -9.609375 C 9.578125 -9.835938 8.882812 -10.046875 8.25 -10.234375 C 7.976562 -9.523438 7.707031 -8.804688 7.4375 -8.078125 C 7.164062 -7.347656 6.890625 -6.625 6.609375 -5.90625 L 10.328125 -4.609375 C 11.640625 -4.140625 12.675781 -3.878906 13.4375 -3.828125 C 14.207031 -3.773438 14.785156 -3.875 15.171875 -4.125 C 15.554688 -4.375 15.820312 -4.707031 15.96875 -5.125 Z M 9.09375 2 C 10.550781 2.519531 11.75 2.726562 12.6875 2.625 C 13.625 2.53125 14.25 2.039062 14.5625 1.15625 C 14.757812 0.59375 14.753906 0.0625 14.546875 -0.4375 C 14.347656 -0.9375 13.867188 -1.425781 13.109375 -1.90625 C 12.359375 -2.394531 11.257812 -2.894531 9.8125 -3.40625 L 6.15625 -4.734375 C 5.851562 -3.941406 5.539062 -3.144531 5.21875 -2.34375 C 4.90625 -1.539062 4.582031 -0.75 4.25 0.03125 C 4.957031 0.34375 5.726562 0.671875 6.5625 1.015625 C 7.394531 1.367188 8.238281 1.695312 9.09375 2 Z M 9.09375 2 "/></g></g></g><g fill="#8b0000" fill-opacity="1"><g transform="translate(244.626491, 69.032775)"><g><path d="M 7.0625 -10.796875 L 7.59375 -11.515625 L 10.59375 -9.484375 C 9.9375 -8.296875 9.335938 -7.222656 8.796875 -6.265625 C 8.253906 -5.316406 7.738281 -4.410156 7.25 -3.546875 C 6.757812 -2.679688 6.25 -1.789062 5.71875 -0.875 C 5.1875 0.0390625 4.59375 1.0625 3.9375 2.1875 L 2.453125 1.265625 C 3.097656 0.160156 3.679688 -0.835938 4.203125 -1.734375 C 4.722656 -2.628906 5.21875 -3.484375 5.6875 -4.296875 C 6.15625 -5.109375 6.628906 -5.9375 7.109375 -6.78125 C 7.585938 -7.632812 8.113281 -8.566406 8.6875 -9.578125 C 8.382812 -9.785156 8.101562 -9.984375 7.84375 -10.171875 C 7.582031 -10.367188 7.320312 -10.578125 7.0625 -10.796875 Z M 7.0625 -10.796875 "/></g></g></g><g fill="#8b0000" fill-opacity="1"><g transform="translate(257.682255, 76.377151)"><g><path d="M 14.4375 1.890625 C 15.238281 2.742188 15.664062 3.566406 15.71875 4.359375 C 15.769531 5.160156 15.5 5.953125 14.90625 6.734375 C 14.03125 7.878906 12.945312 8.347656 11.65625 8.140625 C 10.375 7.941406 8.878906 7.1875 7.171875 5.875 C 6.203125 5.132812 5.25 4.367188 4.3125 3.578125 C 3.382812 2.785156 2.535156 2.023438 1.765625 1.296875 C 3.097656 -0.253906 4.453125 -1.867188 5.828125 -3.546875 C 7.210938 -5.234375 8.546875 -6.890625 9.828125 -8.515625 L 8.59375 -9.390625 L 9.125 -10.171875 C 9.84375 -9.679688 10.53125 -9.210938 11.1875 -8.765625 C 11.851562 -8.316406 12.53125 -7.847656 13.21875 -7.359375 C 13.90625 -6.867188 14.640625 -6.320312 15.421875 -5.71875 C 16.660156 -4.769531 17.554688 -3.898438 18.109375 -3.109375 C 18.671875 -2.328125 18.941406 -1.601562 18.921875 -0.9375 C 18.910156 -0.28125 18.671875 0.351562 18.203125 0.96875 C 17.722656 1.59375 17.15625 1.972656 16.5 2.109375 C 15.851562 2.253906 15.164062 2.179688 14.4375 1.890625 Z M 16.765625 0.046875 C 17.253906 -0.585938 17.332031 -1.285156 17 -2.046875 C 16.664062 -2.804688 15.859375 -3.675781 14.578125 -4.65625 C 14.023438 -5.070312 13.425781 -5.503906 12.78125 -5.953125 C 12.144531 -6.398438 11.550781 -6.804688 11 -7.171875 C 10.539062 -6.585938 10.066406 -5.992188 9.578125 -5.390625 C 9.085938 -4.785156 8.597656 -4.175781 8.109375 -3.5625 L 11.25 -1.1875 C 12.351562 -0.332031 13.257812 0.234375 13.96875 0.515625 C 14.6875 0.796875 15.265625 0.875 15.703125 0.75 C 16.148438 0.625 16.503906 0.390625 16.765625 0.046875 Z M 8.03125 4.71875 C 9.25 5.65625 10.320312 6.222656 11.25 6.421875 C 12.1875 6.617188 12.941406 6.347656 13.515625 5.609375 C 13.867188 5.128906 14.023438 4.617188 13.984375 4.078125 C 13.941406 3.546875 13.632812 2.929688 13.0625 2.234375 C 12.488281 1.546875 11.597656 0.734375 10.390625 -0.203125 L 7.3125 -2.609375 C 6.78125 -1.941406 6.238281 -1.273438 5.6875 -0.609375 C 5.132812 0.046875 4.582031 0.691406 4.03125 1.328125 C 4.601562 1.847656 5.234375 2.40625 5.921875 3 C 6.609375 3.59375 7.3125 4.164062 8.03125 4.71875 Z M 8.03125 4.71875 "/></g></g></g><g fill="#8b0000" fill-opacity="1"><g transform="translate(276.722145, 92.229982)"><g><path d="M 10.046875 -8.078125 L 10.765625 -8.59375 L 13 -5.734375 C 12.019531 -4.816406 11.125 -3.984375 10.3125 -3.234375 C 9.5 -2.492188 8.722656 -1.789062 7.984375 -1.125 C 7.253906 -0.457031 6.492188 0.226562 5.703125 0.9375 C 4.910156 1.644531 4.03125 2.429688 3.0625 3.296875 L 1.9375 1.96875 C 2.894531 1.113281 3.757812 0.34375 4.53125 -0.34375 C 5.3125 -1.03125 6.046875 -1.691406 6.734375 -2.328125 C 7.429688 -2.960938 8.140625 -3.609375 8.859375 -4.265625 C 9.578125 -4.921875 10.367188 -5.640625 11.234375 -6.421875 C 11.015625 -6.722656 10.804688 -7.003906 10.609375 -7.265625 C 10.421875 -7.535156 10.234375 -7.804688 10.046875 -8.078125 Z M 10.046875 -8.078125 "/></g></g></g><g fill="#8b0000" fill-opacity="1"><g transform="translate(115.924682, 309.048847)"><g><path d="M 6.859375 -10.671875 L 7.25 -11.53125 C 10 -10.445312 12.238281 -9.375 13.96875 -8.3125 C 15.707031 -7.257812 17 -6.191406 17.84375 -5.109375 C 18.6875 -4.023438 19.125 -2.90625 19.15625 -1.75 C 19.1875 -0.601562 18.867188 0.609375 18.203125 1.890625 C 17.566406 3.097656 16.804688 4.050781 15.921875 4.75 C 15.035156 5.445312 13.960938 5.804688 12.703125 5.828125 C 11.441406 5.859375 9.945312 5.492188 8.21875 4.734375 C 6.488281 3.984375 4.457031 2.773438 2.125 1.109375 C 3.28125 -0.898438 4.351562 -2.800781 5.34375 -4.59375 C 6.332031 -6.394531 7.304688 -8.203125 8.265625 -10.015625 Z M 4.296875 0.78125 C 6.578125 2.363281 8.503906 3.394531 10.078125 3.875 C 11.660156 4.351562 12.976562 4.34375 14.03125 3.84375 C 15.09375 3.351562 15.976562 2.4375 16.6875 1.09375 C 17.445312 -0.351562 17.664062 -1.648438 17.34375 -2.796875 C 17.019531 -3.953125 16.207031 -5.019531 14.90625 -6 C 13.601562 -6.976562 11.820312 -7.941406 9.5625 -8.890625 C 8.96875 -7.753906 8.382812 -6.664062 7.8125 -5.625 C 7.25 -4.582031 6.679688 -3.539062 6.109375 -2.5 C 5.535156 -1.457031 4.929688 -0.363281 4.296875 0.78125 Z M 4.296875 0.78125 "/></g></g></g><g fill="#8b0000" fill-opacity="1"><g transform="translate(138.091969, 320.023154)"><g><path d="M 8.734375 3.015625 C 7.179688 2.535156 5.914062 1.84375 4.9375 0.9375 C 3.96875 0.0390625 3.328125 -1.015625 3.015625 -2.234375 C 2.703125 -3.453125 2.765625 -4.757812 3.203125 -6.15625 C 3.648438 -7.632812 4.351562 -8.796875 5.3125 -9.640625 C 6.269531 -10.484375 7.40625 -11.007812 8.71875 -11.21875 C 10.039062 -11.4375 11.476562 -11.304688 13.03125 -10.828125 C 14.601562 -10.335938 15.878906 -9.628906 16.859375 -8.703125 C 17.835938 -7.773438 18.472656 -6.691406 18.765625 -5.453125 C 19.054688 -4.222656 18.976562 -2.867188 18.53125 -1.390625 C 18.09375 0.00390625 17.40625 1.113281 16.46875 1.9375 C 15.53125 2.769531 14.398438 3.28125 13.078125 3.46875 C 11.753906 3.65625 10.304688 3.503906 8.734375 3.015625 Z M 9.1875 1.5625 C 10.425781 1.945312 11.566406 2.0625 12.609375 1.90625 C 13.648438 1.75 14.539062 1.34375 15.28125 0.6875 C 16.019531 0.03125 16.554688 -0.832031 16.890625 -1.90625 C 17.242188 -3.050781 17.304688 -4.113281 17.078125 -5.09375 C 16.847656 -6.082031 16.347656 -6.941406 15.578125 -7.671875 C 14.816406 -8.410156 13.816406 -8.972656 12.578125 -9.359375 C 11.359375 -9.734375 10.226562 -9.832031 9.1875 -9.65625 C 8.144531 -9.488281 7.25 -9.0625 6.5 -8.375 C 5.757812 -7.695312 5.210938 -6.785156 4.859375 -5.640625 C 4.523438 -4.566406 4.472656 -3.550781 4.703125 -2.59375 C 4.941406 -1.632812 5.441406 -0.796875 6.203125 -0.078125 C 6.972656 0.640625 7.96875 1.1875 9.1875 1.5625 Z M 9.1875 1.5625 "/></g></g></g><g fill="#8b0000" fill-opacity="1"><g transform="translate(162.163114, 326.831571)"><g><path d="M 15.171875 -3.078125 L 16.609375 -2.5 C 15.972656 -0.957031 14.992188 0.148438 13.671875 0.828125 C 12.359375 1.503906 10.75 1.726562 8.84375 1.5 C 7.238281 1.300781 5.898438 0.835938 4.828125 0.109375 C 3.753906 -0.609375 2.976562 -1.539062 2.5 -2.6875 C 2.019531 -3.84375 1.867188 -5.148438 2.046875 -6.609375 C 2.222656 -8.078125 2.671875 -9.3125 3.390625 -10.3125 C 4.109375 -11.320312 5.070312 -12.046875 6.28125 -12.484375 C 7.488281 -12.929688 8.925781 -13.050781 10.59375 -12.84375 C 11.75 -12.707031 12.816406 -12.375 13.796875 -11.84375 C 14.773438 -11.3125 15.503906 -10.601562 15.984375 -9.71875 C 16.054688 -10.070312 16.117188 -10.4375 16.171875 -10.8125 C 16.234375 -11.1875 16.289062 -11.53125 16.34375 -11.84375 L 17.25 -11.703125 C 17.15625 -10.921875 17.078125 -10.15625 17.015625 -9.40625 C 16.960938 -8.65625 16.90625 -7.910156 16.84375 -7.171875 L 15.46875 -7.046875 C 15.28125 -7.765625 14.988281 -8.425781 14.59375 -9.03125 C 14.195312 -9.632812 13.660156 -10.132812 12.984375 -10.53125 C 12.304688 -10.9375 11.445312 -11.203125 10.40625 -11.328125 C 8.46875 -11.566406 6.929688 -11.242188 5.796875 -10.359375 C 4.660156 -9.484375 3.988281 -8.191406 3.78125 -6.484375 C 3.632812 -5.328125 3.75 -4.289062 4.125 -3.375 C 4.5 -2.457031 5.109375 -1.707031 5.953125 -1.125 C 6.796875 -0.539062 7.847656 -0.171875 9.109375 -0.015625 C 10.492188 0.160156 11.707031 -0.00390625 12.75 -0.515625 C 13.789062 -1.023438 14.597656 -1.878906 15.171875 -3.078125 Z M 15.171875 -3.078125 "/></g></g></g><g fill="#8b0000" fill-opacity="1"><g transform="translate(185.901358, 329.142364)"><g><path d="M 14.5 -2.28125 L 14.484375 -4.359375 L 15.4375 -4.390625 L 15.5625 -0.78125 C 14.65625 -0.726562 13.632812 -0.671875 12.5 -0.609375 C 11.375 -0.546875 10.207031 -0.488281 9 -0.4375 C 7.789062 -0.382812 6.59375 -0.328125 5.40625 -0.265625 C 4.21875 -0.210938 3.109375 -0.175781 2.078125 -0.15625 C 2.085938 -2.15625 2.078125 -4.253906 2.046875 -6.453125 C 2.015625 -8.648438 1.984375 -10.769531 1.953125 -12.8125 L 0.4375 -12.765625 L 0.4375 -13.65625 C 1.769531 -13.738281 3.191406 -13.828125 4.703125 -13.921875 C 6.222656 -14.015625 7.742188 -14.117188 9.265625 -14.234375 C 10.785156 -14.347656 12.203125 -14.460938 13.515625 -14.578125 L 13.96875 -11.078125 L 13.0625 -10.9375 L 12.75 -13.015625 C 11.8125 -12.953125 10.796875 -12.878906 9.703125 -12.796875 C 8.609375 -12.710938 7.535156 -12.640625 6.484375 -12.578125 C 5.429688 -12.515625 4.472656 -12.453125 3.609375 -12.390625 C 3.628906 -11.691406 3.648438 -10.976562 3.671875 -10.25 C 3.703125 -9.519531 3.71875 -8.78125 3.71875 -8.03125 C 4.425781 -8.050781 5.226562 -8.078125 6.125 -8.109375 C 7.03125 -8.140625 7.957031 -8.179688 8.90625 -8.234375 C 9.851562 -8.285156 10.75 -8.34375 11.59375 -8.40625 L 11.671875 -7.109375 C 10.816406 -7.046875 9.914062 -6.988281 8.96875 -6.9375 C 8.019531 -6.882812 7.085938 -6.835938 6.171875 -6.796875 C 5.265625 -6.753906 4.453125 -6.726562 3.734375 -6.71875 C 3.742188 -5.875 3.75 -5.03125 3.75 -4.1875 C 3.757812 -3.351562 3.765625 -2.539062 3.765625 -1.75 C 4.859375 -1.78125 6.019531 -1.820312 7.25 -1.875 C 8.476562 -1.9375 9.710938 -2 10.953125 -2.0625 C 12.203125 -2.132812 13.382812 -2.207031 14.5 -2.28125 Z M 14.5 -2.28125 "/></g></g></g><g fill="#8b0000" fill-opacity="1"><g transform="translate(208.79066, 327.467627)"><g><path d="M 8.78125 -7.375 C 9.550781 -6.457031 10.519531 -5.765625 11.6875 -5.296875 C 12.863281 -4.828125 14.289062 -4.664062 15.96875 -4.8125 L 16.03125 -3.234375 C 14.039062 -3.003906 12.285156 -3.238281 10.765625 -3.9375 C 9.253906 -4.632812 8.007812 -5.613281 7.03125 -6.875 C 5.894531 -6.570312 4.523438 -6.3125 2.921875 -6.09375 C 3.085938 -5.226562 3.25 -4.347656 3.40625 -3.453125 C 3.5625 -2.566406 3.71875 -1.671875 3.875 -0.765625 L 2.140625 -0.515625 C 1.785156 -2.617188 1.414062 -4.71875 1.03125 -6.8125 C 0.644531 -8.914062 0.238281 -10.992188 -0.1875 -13.046875 L -1.65625 -12.703125 L -1.921875 -13.5625 C 0.703125 -14.375 2.898438 -14.9375 4.671875 -15.25 C 6.441406 -15.570312 7.867188 -15.675781 8.953125 -15.5625 C 10.035156 -15.457031 10.851562 -15.140625 11.40625 -14.609375 C 11.957031 -14.085938 12.332031 -13.367188 12.53125 -12.453125 C 12.789062 -11.304688 12.648438 -10.316406 12.109375 -9.484375 C 11.566406 -8.648438 10.457031 -7.945312 8.78125 -7.375 Z M 2.671875 -7.53125 C 4.890625 -7.851562 6.625 -8.207031 7.875 -8.59375 C 9.125 -8.976562 9.976562 -9.453125 10.4375 -10.015625 C 10.894531 -10.578125 11.03125 -11.265625 10.84375 -12.078125 C 10.664062 -12.910156 10.25 -13.484375 9.59375 -13.796875 C 8.945312 -14.117188 7.976562 -14.210938 6.6875 -14.078125 C 5.40625 -13.953125 3.707031 -13.617188 1.59375 -13.078125 C 1.78125 -12.140625 1.960938 -11.207031 2.140625 -10.28125 C 2.328125 -9.363281 2.503906 -8.445312 2.671875 -7.53125 Z M 2.671875 -7.53125 "/></g></g></g><g fill="#8b0000" fill-opacity="1"><g transform="translate(230.912339, 321.823101)"><g><path d="M -3.40625 -12.40625 L -3.59375 -13.296875 L -0.09375 -14.203125 C 0.363281 -12.929688 0.769531 -11.773438 1.125 -10.734375 C 1.476562 -9.703125 1.8125 -8.710938 2.125 -7.765625 C 2.445312 -6.828125 2.773438 -5.859375 3.109375 -4.859375 C 3.453125 -3.859375 3.828125 -2.738281 4.234375 -1.5 L 2.578125 -1 C 2.179688 -2.207031 1.816406 -3.300781 1.484375 -4.28125 C 1.160156 -5.269531 0.847656 -6.207031 0.546875 -7.09375 C 0.242188 -7.988281 -0.0625 -8.898438 -0.375 -9.828125 C -0.695312 -10.753906 -1.050781 -11.757812 -1.4375 -12.84375 C -1.78125 -12.769531 -2.109375 -12.691406 -2.421875 -12.609375 C -2.742188 -12.535156 -3.070312 -12.46875 -3.40625 -12.40625 Z M -3.40625 -12.40625 "/></g></g></g><g fill="#8b0000" fill-opacity="1"><g transform="translate(243.445194, 317.158684)"><g><path d="M 14.9375 -8.28125 L 13.71875 -6.984375 C 13.125 -7.398438 12.519531 -7.820312 11.90625 -8.25 C 11.300781 -8.675781 10.703125 -9.097656 10.109375 -9.515625 C 8.765625 -8.753906 7.441406 -8.039062 6.140625 -7.375 C 4.847656 -6.71875 3.457031 -6.050781 1.96875 -5.375 C 1.9375 -4.476562 1.910156 -3.632812 1.890625 -2.84375 C 1.867188 -2.050781 1.851562 -1.320312 1.84375 -0.65625 L 0.140625 -0.453125 C 0.242188 -2.898438 0.335938 -5.351562 0.421875 -7.8125 C 0.503906 -10.269531 0.613281 -12.628906 0.75 -14.890625 L -1.328125 -14.015625 L -1.65625 -14.875 C -1.050781 -15.15625 -0.410156 -15.457031 0.265625 -15.78125 C 0.941406 -16.101562 1.585938 -16.421875 2.203125 -16.734375 C 3.296875 -16.035156 4.351562 -15.359375 5.375 -14.703125 C 6.394531 -14.046875 7.40625 -13.382812 8.40625 -12.71875 C 9.40625 -12.050781 10.441406 -11.359375 11.515625 -10.640625 C 12.597656 -9.921875 13.738281 -9.132812 14.9375 -8.28125 Z M 2.015625 -6.921875 C 3.210938 -7.472656 4.363281 -8.035156 5.46875 -8.609375 C 6.582031 -9.179688 7.695312 -9.773438 8.8125 -10.390625 C 7.695312 -11.171875 6.59375 -11.921875 5.5 -12.640625 C 4.40625 -13.359375 3.359375 -14.050781 2.359375 -14.71875 C 2.285156 -13.519531 2.21875 -12.25 2.15625 -10.90625 C 2.101562 -9.5625 2.054688 -8.234375 2.015625 -6.921875 Z M 2.015625 -6.921875 "/></g></g></g><g fill="#8b0000" fill-opacity="1"><g transform="translate(164.162967, 207.450658)"><g><path d="M 84.671875 -78.984375 C 84.671875 -74.296875 83.5 -70.109375 81.15625 -66.421875 C 78.8125 -62.734375 75.796875 -60.191406 72.109375 -58.796875 C 83.679688 -58.191406 92.109375 -53.648438 97.390625 -45.171875 C 100.085938 -40.890625 101.4375 -35.601562 101.4375 -29.3125 C 101.4375 -23.03125 99.015625 -17.296875 94.171875 -12.109375 C 89.335938 -6.929688 83.179688 -3.242188 75.703125 -1.046875 C 68.222656 1.148438 60.34375 2.25 52.0625 2.25 C 31.414062 2.25 16.65625 -3.238281 7.78125 -14.21875 C 2.101562 -21.195312 -0.734375 -30.617188 -0.734375 -42.484375 C -0.734375 -44.472656 -0.632812 -46.46875 -0.4375 -48.46875 L 1.046875 -48.625 C 1.742188 -31.46875 7.878906 -19.195312 19.453125 -11.8125 L 19.453125 -93.9375 C 19.347656 -97.632812 17.703125 -100.328125 14.515625 -102.015625 C 13.117188 -102.816406 11.570312 -103.21875 9.875 -103.21875 L 7.9375 -103.21875 L 7.9375 -104.71875 L 45.9375 -104.71875 C 57 -104.71875 66.21875 -102.5 73.59375 -98.0625 C 80.976562 -93.625 84.671875 -87.265625 84.671875 -78.984375 Z M 46.078125 -4.78125 C 55.359375 -4.78125 62.613281 -7.222656 67.84375 -12.109375 C 73.082031 -17.003906 75.703125 -23.441406 75.703125 -31.421875 C 75.703125 -36.398438 74.78125 -40.609375 72.9375 -44.046875 C 71.09375 -47.492188 68.671875 -50.066406 65.671875 -51.765625 C 60.191406 -55.054688 53.960938 -56.703125 46.984375 -56.703125 L 46.984375 -58.046875 C 50.171875 -58.046875 52.863281 -59.191406 55.0625 -61.484375 C 58.84375 -65.472656 60.734375 -70.90625 60.734375 -77.78125 C 60.734375 -84.664062 59.210938 -89.753906 56.171875 -93.046875 C 53.128906 -96.335938 48.367188 -98.082031 41.890625 -98.28125 L 41.890625 -4.9375 C 43.285156 -4.832031 44.679688 -4.78125 46.078125 -4.78125 Z M 46.078125 -4.78125 "/></g></g></g><g fill="#8b0000" fill-opacity="1"><g transform="translate(114.782469, 253.451527)"><g><path d="M 30.828125 -104.375 C 32.515625 -104.375 35.59375 -104.375 40.0625 -104.375 C 44.53125 -104.375 52.816406 -104.320312 64.921875 -104.21875 C 82.492188 -104.019531 96.390625 -99.28125 106.609375 -90 C 116.835938 -80.71875 121.953125 -68.0625 121.953125 -52.03125 C 121.953125 -36 116.835938 -23.316406 106.609375 -13.984375 C 96.390625 -4.660156 82.492188 0 64.921875 0 L 10.875 0 L 10.875 -1.484375 L 12.8125 -1.484375 C 15.289062 -1.484375 17.445312 -2.351562 19.28125 -4.09375 C 21.125 -5.832031 22.144531 -7.941406 22.34375 -10.421875 L 22.34375 -97.515625 C 11.226562 -96.722656 2.988281 -94.144531 -2.375 -89.78125 C -5.050781 -87.695312 -7.160156 -85.5625 -8.703125 -83.375 C -10.242188 -81.195312 -11.757812 -78.566406 -13.25 -75.484375 L -14.734375 -76.078125 C -12.347656 -86.003906 -7.359375 -93.175781 0.234375 -97.59375 C 7.828125 -102.007812 18.023438 -104.269531 30.828125 -104.375 Z M 63.140625 -6.25 C 73.753906 -6.25 82.160156 -10.367188 88.359375 -18.609375 C 94.566406 -26.847656 97.671875 -38.015625 97.671875 -52.109375 C 97.671875 -66.203125 94.566406 -77.316406 88.359375 -85.453125 C 82.160156 -93.597656 73.851562 -97.671875 63.4375 -97.671875 C 63.332031 -97.671875 63.234375 -97.671875 63.140625 -97.671875 L 44.671875 -97.671875 L 44.671875 -6.25 Z M 63.140625 -6.25 "/></g></g></g></svg>