<svg width="67" height="64" viewBox="0 0 67 64" fill="none" xmlns="http://www.w3.org/2000/svg">
<path d="M14.936 19.5187C15.48 19.5187 16.472 19.5187 17.912 19.5187C19.352 19.5187 22.024 19.5347 25.928 19.5667C31.592 19.6307 36.072 21.1667 39.368 24.1747C42.664 27.1507 44.312 31.2307 44.312 36.4147C44.312 41.5667 42.664 45.6467 39.368 48.6547C36.072 51.6627 31.592 53.1667 25.928 53.1667H8.504V52.6867H9.128C9.928 52.6867 10.616 52.4147 11.192 51.8707C11.8 51.2947 12.136 50.6067 12.2 49.8067V21.7267C8.616 21.9827 5.96 22.8147 4.232 24.2227C3.368 24.8947 2.696 25.5827 2.216 26.2867C1.704 26.9907 1.208 27.8387 0.728 28.8307L0.248 28.6387C1.016 25.4387 2.616 23.1347 5.048 21.7267C7.512 20.2867 10.808 19.5507 14.936 19.5187ZM25.352 51.1507C28.776 51.1507 31.48 49.8227 33.464 47.1667C35.48 44.5107 36.488 40.9107 36.488 36.3667C36.488 31.8227 35.48 28.2387 33.464 25.6147C31.48 22.9907 28.808 21.6787 25.448 21.6787C25.416 21.6787 25.384 21.6787 25.352 21.6787H19.4V51.1507H25.352Z" fill="#8B0000"/>
<path d="M48.3801 13.156C48.3801 14.66 47.9961 16.004 47.2281 17.188C46.4921 18.372 45.5321 19.188 44.3481 19.636C48.0601 19.828 50.7641 21.284 52.4601 24.004C53.3241 25.38 53.7561 27.076 53.7561 29.092C53.7561 31.108 52.9721 32.948 51.4041 34.612C49.8681 36.276 47.9001 37.46 45.5001 38.164C43.1001 38.868 40.5721 39.22 37.9161 39.22C31.2921 39.22 26.5561 37.46 23.7081 33.94C21.8841 31.7 20.9721 28.676 20.9721 24.868C20.9721 24.228 21.0041 23.588 21.0681 22.948L21.5481 22.9C21.7721 28.404 23.7401 32.34 27.4521 34.708V8.356C27.4201 7.172 26.8921 6.308 25.8681 5.764C25.4201 5.508 24.9241 5.38 24.3801 5.38H23.7561V4.9H35.9481C39.5001 4.9 42.4601 5.62 44.8281 7.06C47.1961 8.468 48.3801 10.5 48.3801 13.156ZM35.9961 36.964C38.9721 36.964 41.2921 36.18 42.9561 34.612C44.6521 33.044 45.5001 30.98 45.5001 28.42C45.5001 26.82 45.1961 25.476 44.5881 24.388C44.0121 23.268 43.2441 22.436 42.2841 21.892C40.5241 20.836 38.5241 20.308 36.2841 20.308V19.876C37.3081 19.876 38.1721 19.508 38.8761 18.772C40.0921 17.492 40.7001 15.748 40.7001 13.54C40.7001 11.332 40.2041 9.7 39.2121 8.644C38.2521 7.588 36.7321 7.028 34.6521 6.964V36.916C35.1001 36.948 35.5481 36.964 35.9961 36.964Z" fill="#8B0000"/>
</svg>
